<svg width="126" height="137" viewBox="0 0 126 137" fill="none" xmlns="http://www.w3.org/2000/svg">
<path d="M45.4581 0.604254C48.2374 2.08647 49.2888 5.54099 47.8065 8.32016L30.9329 39.9572C31.1827 39.9784 31.432 40.0029 31.681 40.0308L58.7028 13.0098C60.9299 10.7826 64.5412 10.7826 66.7683 13.0098C68.9955 15.237 68.9955 18.8479 66.7683 21.0751L43.6445 44.1982C43.9973 44.4191 44.346 44.648 44.6902 44.885C48.8447 47.7461 52.1367 51.6368 54.2731 56.1332C55.6248 58.9781 53.6811 62.1177 50.624 62.8774C47.5672 63.637 44.5112 61.6939 42.7899 59.0562C41.5863 57.2118 40.0268 55.6029 38.1832 54.3332C34.7572 51.9739 30.5865 50.9489 26.4571 51.4515C22.3277 51.954 18.5247 53.9494 15.7645 57.0618C13.0044 60.1735 11.4778 64.188 11.4724 68.3473C11.4669 72.5073 12.983 76.5252 15.735 79.6449C18.487 82.764 22.2848 84.7698 26.4129 85.2831C30.5409 85.7964 34.7142 84.7824 38.1464 82.4321C39.9934 81.1671 41.5571 79.5622 42.7655 77.7212C44.4937 75.0874 47.5547 73.1529 50.6096 73.92C53.6646 74.6876 55.6003 77.8324 54.2412 80.6737C52.0928 85.165 48.7907 89.0467 44.6287 91.8971C38.8862 95.8295 31.9038 97.5262 24.9971 96.6673C18.0904 95.8084 11.7362 92.4532 7.13184 87.2342C2.53572 82.0243 0 75.3161 0 68.3702V68.3325C0.00119768 67.4246 0.0456826 66.5212 0.132429 65.624C0.407211 62.4297 1.08173 58.4762 1.89302 54.4196C2.98747 48.9473 4.43735 42.7902 5.87353 37.0457C7.31206 31.2918 8.74888 25.9042 9.82519 21.9578C10.3636 19.9835 10.8127 18.367 11.1276 17.2424C11.2923 16.6541 11.4583 16.0661 11.6251 15.4784C12.4905 12.4498 15.6479 10.6936 18.6765 11.5589C21.7051 12.4242 23.4588 15.5807 22.5935 18.6092C22.4319 19.1784 22.2711 19.748 22.1116 20.3178C21.8027 21.421 21.3606 23.0125 20.8297 24.959C19.7673 28.8543 18.3525 34.1599 16.9394 39.8121C16.7061 40.7452 16.4732 41.6865 16.2422 42.6312C16.3912 42.5602 16.5408 42.4905 16.6909 42.422L37.742 2.95257C39.2243 0.173418 42.967 -0.724611 45.4581 0.604254Z" fill="#0F0F0F"/>
<path d="M71.2297 56.0657C69.8706 58.9071 71.8063 62.0519 74.8615 62.8195C77.9162 63.5866 80.9771 61.6521 82.7052 59.0189C83.9137 57.1773 85.4775 55.5726 87.3242 54.3078C90.7564 51.9574 94.9301 50.9434 99.0581 51.4567C103.186 51.9701 106.984 53.9753 109.736 57.0946C112.488 60.2143 114.004 64.2322 113.998 68.3922C113.993 72.5515 112.466 76.5661 109.707 79.6777C106.946 82.79 103.143 84.7856 99.0136 85.288C94.8845 85.7905 90.7137 84.7656 87.2877 82.4062C85.4439 81.1366 83.8846 79.5277 82.6812 77.6833C80.9594 75.0456 77.9036 73.1031 74.8467 73.8622C71.7898 74.6218 69.8461 77.7615 71.1978 80.6062C73.3342 85.1027 76.6261 88.9934 80.7809 91.8547C81.1248 92.0914 81.4733 92.3207 81.8263 92.5414L58.7026 115.665C56.4754 117.892 56.4754 121.502 58.7026 123.73C60.9297 125.957 64.541 125.957 66.7681 123.73L93.79 96.7087C94.0387 96.7367 94.2885 96.7612 94.5383 96.7823L77.6641 128.419C76.1818 131.198 77.2335 134.653 80.0127 136.135C82.6003 137.515 86.2469 136.566 87.7292 133.787L108.78 94.3174C108.93 94.2489 109.08 94.1794 109.229 94.1086C108.998 95.0531 108.765 95.9941 108.532 96.9277C107.118 102.58 105.703 107.885 104.641 111.781C104.111 113.727 103.668 115.318 103.359 116.422C103.2 116.992 103.039 117.561 102.878 118.13C102.012 121.159 103.766 124.315 106.795 125.181C109.823 126.046 112.98 124.292 113.845 121.264L113.848 121.255C114.014 120.669 114.179 120.083 114.343 119.497C114.658 118.372 115.107 116.756 115.646 114.782C116.722 110.836 118.159 105.448 119.597 99.6938C121.034 93.9495 122.484 87.7923 123.578 82.32C124.389 78.2633 125.064 74.3093 125.339 71.1149C125.425 70.2184 125.47 69.315 125.471 68.407C125.471 68.3945 125.471 68.3819 125.471 68.3699C125.471 61.4234 122.935 54.7152 118.339 49.5054C113.735 44.2863 107.38 40.9313 100.474 40.0724C93.567 39.2135 86.5845 40.9102 80.8419 44.8426C76.6803 47.6927 73.3776 51.5748 71.2297 56.0657Z" fill="#0F0F0F"/>
</svg>
